<?xml version="1.0" standalone="no"?>
<!DOCTYPE svg PUBLIC "-//W3C//DTD SVG 20010904//EN"
 "http://www.w3.org/TR/2001/REC-SVG-20010904/DTD/svg10.dtd">
<svg version="1.0" xmlns="http://www.w3.org/2000/svg"
 width="700.000000pt" height="700.000000pt" viewBox="0 0 700.000000 700.000000"
 preserveAspectRatio="xMidYMid meet">
<metadata>
Created by potrace 1.14, written by Peter Selinger 2001-2017
</metadata>
<g transform="translate(0.000000,700.000000) scale(0.100000,-0.100000)"
fill="#000000" stroke="none">
<path d="M1135 5833 c-279 -23 -508 -239 -539 -508 -4 -27 -7 -860 -8 -1850
-1 -1678 0 -1804 16 -1865 62 -230 255 -403 488 -437 29 -5 1122 -8 2428 -7
1887 1 2387 3 2435 14 209 44 382 208 442 417 15 53 16 239 18 2146 1 1891 0
2087 -14 2088 -86 5 -1134 2 -1137 -3 -3 -4 124 -264 281 -579 160 -318 282
-575 277 -578 -6 -3 -201 -6 -434 -6 l-423 1 -90 176 c-49 97 -180 358 -290
580 -110 222 -201 405 -203 407 -3 7 -563 7 -573 0 -6 -3 119 -263 276 -577
157 -314 285 -575 285 -579 0 -4 -195 -8 -432 -8 l-433 0 -290 579 c-173 346
-297 582 -307 585 -20 7 -556 7 -563 0 -2 -3 126 -264 284 -581 285 -568 288
-576 262 -580 -14 -1 -210 -3 -436 -2 l-409 0 -288 575 c-158 316 -289 578
-291 583 -3 8 -257 15 -332 9z m2036 -1749 c987 1 1489 -2 1489 -9 -1 -23
-176 -389 -190 -396 -8 -5 -46 -23 -85 -40 -38 -18 -117 -54 -173 -80 -57 -27
-108 -49 -113 -49 -5 0 -9 -4 -9 -10 0 -5 4 -10 9 -10 12 0 371 -166 382 -177
4 -4 35 -66 67 -138 119 -260 120 -262 130 -235 6 14 29 66 52 115 23 50 60
129 82 176 l39 86 82 37 c45 21 133 61 195 89 61 27 112 53 112 57 0 3 -17 13
-37 23 -21 9 -109 49 -195 89 l-157 71 -88 191 c-48 104 -88 194 -88 200 0 9
1105 17 1145 8 14 -3 15 -132 16 -1168 l0 -1164 -2333 0 -2333 0 0 1681 0
1681 256 -514 257 -514 1488 0z"/>
<path d="M2781 3495 c-83 -183 -143 -302 -155 -310 -12 -8 -61 -31 -111 -53
-49 -22 -134 -60 -188 -86 -54 -25 -100 -46 -102 -46 -10 0 -176 -82 -173 -85
2 -3 65 -32 139 -66 74 -34 152 -70 174 -80 22 -10 93 -42 158 -71 l118 -54
45 -99 c25 -55 63 -136 83 -180 21 -44 48 -105 62 -135 13 -30 38 -84 55 -120
l32 -65 25 55 c14 30 40 87 58 125 18 39 33 72 34 75 0 3 18 41 38 84 20 43
37 80 37 82 0 1 18 42 41 89 l40 86 116 55 c63 29 117 54 120 54 2 0 48 21
101 46 53 25 134 62 180 82 l83 36 -28 15 c-15 8 -80 38 -143 67 -63 28 -142
64 -175 79 -33 15 -103 47 -155 71 -52 24 -98 49 -103 56 -12 21 -124 265
-173 377 -10 25 -37 82 -59 128 l-40 84 -134 -296z"/>
</g>
</svg>
