<svg width="327" height="199" viewBox="0 0 327 199" fill="none" xmlns="http://www.w3.org/2000/svg">
<path fill-rule="evenodd" clip-rule="evenodd" d="M275.572 170.437L271.04 169.601L299 194.157L249.346 168.108L251.537 182.625L227.008 174.613L224.142 191.687L202.592 180.845L194.401 197.267L176.713 184.04L163.494 199.157L150.281 184.04L132.586 197.267L124.395 180.845L102.845 191.687L99.9795 174.613L75.4501 182.625L78.0305 165.53L51.4215 170.437L59.3465 153.968L31.7168 155.565L44.6757 140.385L17.0714 138.61L34.5951 125.273L8.05588 120.21L29.428 109.253L5 101.079L29.428 92.9041L8.05588 81.9525L34.5951 76.8839L17.0714 63.5468L44.6757 61.772L31.7168 46.5974L59.3465 48.1895L51.4215 31.7204L78.0368 36.6325L75.4564 19.537L99.9859 27.5497L102.852 10.475L124.401 21.3118L132.592 4.88964L150.287 18.1119L163.5 3L176.719 18.1067L194.408 4.88442L202.599 21.3065L224.148 10.4698L227.014 27.5444L251.544 19.5317L248.963 36.6272L275.585 31.7204L267.66 48.1895L295.283 46.5922L282.331 61.7668L309.935 63.5416L292.418 76.8787L318.957 81.9473L297.578 92.8988L322.006 101.073L297.578 109.248L318.957 120.205L292.418 125.268L309.935 138.605L282.331 140.38L295.283 155.56L267.66 153.962L275.585 170.431L275.572 170.437Z" fill="white" stroke="black" stroke-width="3"/>
</svg>
