<svg width="385" height="234" viewBox="0 0 385 234" fill="none" xmlns="http://www.w3.org/2000/svg">
<path fill-rule="evenodd" clip-rule="evenodd" d="M360.31 117C360.31 129.93 350.719 138.551 331.538 142.863C333.312 144.187 335.738 146.49 338.815 149.773L384 166.139L342.813 160.841C342.662 165.278 340.49 169.83 336.297 174.497C326.217 185.688 311.202 190.078 291.251 187.667C295.001 200.486 288.16 210.126 270.727 216.589C253.274 223.053 236.847 222.035 221.446 213.537C214.745 225.841 201.314 231.993 181.151 231.993C160.996 231.993 147.564 225.839 140.857 213.53C125.456 222.036 109.029 223.056 91.5757 216.589C74.1381 210.124 67.2993 200.484 71.0593 187.667C51.0955 190.086 36.0779 185.695 26.0063 174.497C15.9331 163.296 17.5168 152.751 30.7574 142.863C11.5858 138.551 2 129.931 2 117C2 104.073 11.5858 95.4494 30.7574 91.1304C17.5214 81.2453 15.9377 70.7007 26.0063 59.4966C36.0655 48.303 51.0832 43.9128 71.0593 46.3259C67.3013 33.5085 74.1401 23.8681 91.5757 17.4047C109.028 10.9449 125.455 11.9644 140.857 20.463C147.568 8.15434 161 2 181.151 2C201.293 2 214.725 8.15212 221.446 20.4564C236.847 11.9578 253.274 10.9406 270.727 17.4047C288.16 23.8742 295.001 33.5146 291.251 46.3259C311.202 43.9072 326.217 48.2975 336.297 59.4967C346.357 70.6912 344.771 81.2358 331.538 91.1304C350.72 95.4421 360.31 104.065 360.31 117H360.31Z" fill="white" stroke="#4B4B4B" stroke-width="3"/>
</svg>
