<svg width="327" height="199" viewBox="0 0 327 199" fill="none" xmlns="http://www.w3.org/2000/svg">
<path fill-rule="evenodd" clip-rule="evenodd" d="M275.572 167.742L271.04 166.92L299 191.08L249.346 165.451L251.537 179.734L227.008 171.851L224.142 188.65L202.592 177.983L194.401 194.141L176.713 181.126L163.494 196L150.281 181.126L132.586 194.141L124.395 177.983L102.845 188.65L99.9795 171.851L75.4501 179.734L78.0305 162.914L51.4215 167.742L59.3465 151.538L31.7168 153.109L44.6757 138.174L17.0714 136.428L34.5951 123.305L8.05588 118.323L29.428 107.543L5 99.5L29.428 91.4571L8.05588 80.6818L34.5951 75.6947L17.0714 62.5723L44.6757 60.8261L31.7168 45.8957L59.3465 47.4622L51.4215 31.2582L78.0368 36.0912L75.4564 19.2708L99.9859 27.1545L102.852 10.3547L124.401 21.017L132.592 4.85923L150.287 17.8687L163.5 3L176.719 17.8635L194.408 4.85409L202.599 21.0119L224.148 10.3496L227.014 27.1494L251.544 19.2657L248.963 36.086L275.585 31.2582L267.66 47.4622L295.283 45.8906L282.331 60.8209L309.935 62.5672L292.418 75.6896L318.957 80.6766L297.578 91.4519L322.006 99.4949L297.578 107.538L318.957 118.318L292.418 123.3L309.935 136.423L282.331 138.169L295.283 153.104L267.66 151.533L275.585 167.737L275.572 167.742Z" fill="white" stroke="black" stroke-width="3"/>
</svg>
