<svg width="388" height="236" viewBox="0 0 388 236" fill="none" xmlns="http://www.w3.org/2000/svg">
<path fill-rule="evenodd" clip-rule="evenodd" d="M363 117C363 130.155 353.284 138.926 333.852 143.313C335.649 144.66 338.106 147.003 341.223 150.343L387 166.993L345.274 161.603C345.121 166.118 342.921 170.749 338.672 175.497C328.461 186.883 313.249 191.349 293.037 188.896C296.836 201.938 289.905 211.746 272.245 218.321C254.563 224.897 237.921 223.862 222.319 215.216C215.53 227.734 201.923 233.993 181.496 233.993C161.077 233.993 147.469 227.732 140.674 215.209C125.072 223.863 108.43 224.9 90.7482 218.321C73.0823 211.744 66.154 201.936 69.9632 188.896C49.7381 191.357 34.5239 186.89 24.3205 175.497C14.1154 164.101 15.7199 153.373 29.1338 143.313C9.71127 138.926 0 130.155 0 117C0 103.848 9.71127 95.0747 29.1338 90.6806C15.7245 80.6235 14.1201 69.8955 24.3205 58.4966C34.5114 47.1083 49.7256 42.6417 69.9632 45.0968C66.156 32.0565 73.0843 22.2485 90.7482 15.6726C108.429 9.1005 125.071 10.1377 140.674 18.7841C147.474 6.26137 161.081 0 181.496 0C201.902 0 215.509 6.25912 222.319 18.7774C237.921 10.131 254.563 9.09607 272.245 15.6726C289.905 22.2546 296.836 32.0627 293.037 45.0968C313.249 42.636 328.461 47.1027 338.672 58.4966C348.864 69.8859 347.257 80.6139 333.852 90.6806C353.284 95.0672 363 103.84 363 117H363Z" fill="white" stroke="#4B4B4B" stroke-width="3"/>
</svg>
