<svg width="236" height="169" viewBox="0 0 236 169" fill="none" xmlns="http://www.w3.org/2000/svg">
<g clip-path="url(#clip0)">
<path d="M235.153 147.058L214.139 120.675V9.72008C214.139 7.03647 213.189 4.74555 211.287 2.84733C209.386 0.949111 207.092 0 204.404 0H31.5954C28.9078 0 26.6138 0.949111 24.7133 2.84733C22.8129 4.74541 21.8627 7.03632 21.8627 9.72008V120.675L0.846742 147.058C0.282247 147.767 0 148.574 0 149.481V161.159C0 163.301 0.758146 165.129 2.27444 166.643C3.79052 168.156 5.62115 168.913 7.76634 168.913H228.234C230.379 168.913 232.21 168.156 233.726 166.643C235.242 165.129 236 163.301 236 161.159V149.481C236 148.572 235.718 147.764 235.153 147.058ZM35.5964 13.7149H200.404V106.96H35.5964V13.7149ZM140.181 159.69H95.8192V147.965H140.181V159.69Z" fill="#4B4B4B"/>
<path d="M112.317 70.8455C112.415 70.9027 112.515 70.902 112.616 70.8433L125.294 63.2743C125.39 63.2171 125.438 63.1318 125.438 63.0186C125.438 62.9052 125.39 62.8199 125.294 62.7628L112.616 55.1961C112.516 55.1379 112.416 55.1364 112.317 55.1918C112.217 55.2487 112.166 55.3353 112.166 55.4518V63.0186V70.5875C112.166 70.7048 112.217 70.7908 112.317 70.8455Z" fill="#4B4B4B"/>
<path d="M83 30V96.0371H153.44V30H83ZM140.782 35.5031H148.487V39.9056H140.782V35.5031ZM127.575 35.5031H135.279V39.9056H127.575V35.5031ZM114.368 35.5031H122.072V39.9056H114.368V35.5031ZM101.16 35.5031H108.865V39.9056H101.16V35.5031ZM87.9528 35.5031H95.6571V39.9056H87.9528V35.5031ZM95.6571 90.534H87.9528V86.1316H95.6571V90.534ZM108.865 90.534H101.16V86.1316H108.865V90.534ZM122.072 90.534H114.368V86.1316H122.072V90.534ZM135.279 90.534H127.575V86.1316H135.279V90.534ZM148.487 90.534H140.782V86.1316H148.487V90.534ZM148.581 81.7291H88.0474V44.308H148.581V81.7291Z" fill="#4B4B4B"/>
<path d="M175.781 24.2307C175.21 23.6593 174.667 22.9703 174.152 22.1638C173.672 21.4108 173.224 20.5683 172.809 19.6365C172.421 18.764 172.07 17.8347 171.758 16.8486C171.463 15.9176 171.213 14.9681 171.006 14C170.798 14.9687 170.548 15.9184 170.253 16.8491C169.941 17.8358 169.59 18.7652 169.202 19.6376C168.787 20.5697 168.34 21.4123 167.859 22.1653C167.345 22.972 166.802 23.661 166.23 24.2323C165.659 24.8032 164.97 25.346 164.164 25.8605C163.411 26.3409 162.568 26.7885 161.636 27.2035C160.764 27.592 159.835 27.9424 158.848 28.2549C157.918 28.5498 156.968 28.8009 156 29.0083C156.968 29.2152 157.918 29.4659 158.849 29.7605C159.835 30.0727 160.765 30.423 161.637 30.8113C162.569 31.2262 163.412 31.6738 164.165 32.1543C164.971 32.669 165.66 33.212 166.231 33.7834C166.802 34.3545 167.345 35.0433 167.86 35.8499C168.34 36.6028 168.788 37.4452 169.203 38.3772C169.591 39.2496 169.942 40.179 170.254 41.1654C170.549 42.0962 170.8 43.0458 171.007 44.014C171.214 43.0457 171.465 42.096 171.76 41.1649C172.072 40.1785 172.422 39.249 172.811 38.3765C173.225 37.4444 173.673 36.6018 174.153 35.8487C174.668 35.0421 175.211 34.3531 175.782 33.7817C176.353 33.2106 177.042 32.6678 177.848 32.1532C178.601 31.6728 179.444 31.2252 180.376 30.8102C181.248 30.4219 182.177 30.0715 183.164 29.759C184.094 29.4642 185.044 29.2132 186.012 29.0058C185.044 28.7989 184.094 28.5481 183.163 28.2534C182.177 27.9411 181.248 27.5908 180.375 27.2024C179.443 26.7875 178.601 26.3398 177.848 25.8594C177.041 25.3447 176.352 24.8018 175.781 24.2307Z" fill="#4B4B4B"/>
<path d="M191.104 43.1262C190.763 42.7851 190.439 42.3736 190.132 41.8918C189.845 41.4419 189.577 40.9386 189.329 40.3818C189.097 39.8604 188.888 39.3051 188.701 38.716C188.525 38.1596 188.375 37.5923 188.251 37.0142C188.127 37.5929 187.978 38.1601 187.802 38.716C187.615 39.3055 187.406 39.8608 187.174 40.3819C186.926 40.9389 186.659 41.4423 186.372 41.8921C186.065 42.3741 185.74 42.7857 185.399 43.127C185.058 43.4679 184.646 43.792 184.164 44.0994C183.714 44.3863 183.211 44.6538 182.654 44.9017C182.133 45.1339 181.578 45.3433 180.989 45.53C180.432 45.7062 179.865 45.8562 179.287 45.9801C179.866 46.1039 180.433 46.2538 180.989 46.4299C181.578 46.6165 182.133 46.8258 182.655 47.0577C183.211 47.3056 183.715 47.573 184.164 47.86C184.646 48.1674 185.058 48.4918 185.399 48.8331C185.74 49.1742 186.065 49.5856 186.372 50.0675C186.659 50.5173 186.927 51.0206 187.175 51.5775C187.407 52.0986 187.616 52.6539 187.803 53.2433C187.979 53.7993 188.129 54.3666 188.253 54.9451C188.377 54.3666 188.526 53.7992 188.702 53.2429C188.889 52.6536 189.098 52.0984 189.33 51.5771C189.578 51.0203 189.845 50.5169 190.132 50.067C190.44 49.5852 190.764 49.1736 191.105 48.8323C191.446 48.4912 191.858 48.167 192.34 47.8595C192.789 47.5726 193.293 47.3051 193.849 47.0571C194.371 46.825 194.926 46.6156 195.515 46.4288C196.071 46.2526 196.638 46.1025 197.216 45.9784C196.638 45.8548 196.071 45.705 195.515 45.5289C194.926 45.3424 194.371 45.1332 193.849 44.9012C193.293 44.6533 192.789 44.3859 192.339 44.0989C191.857 43.7915 191.446 43.4673 191.104 43.1262Z" fill="#4B4B4B"/>
<path d="M166.115 47.9461C165.896 48.9669 165.594 49.9094 165.21 50.7736C165.002 51.2413 164.778 51.664 164.537 52.0416C164.279 52.4463 164.007 52.7919 163.72 53.0783C163.434 53.3645 163.088 53.6367 162.684 53.8947C162.306 54.1356 161.884 54.3601 161.416 54.5682C160.551 54.9533 159.609 55.2551 158.589 55.4734C159.611 55.6926 160.553 55.9942 161.416 56.3783C161.884 56.5864 162.306 56.8108 162.684 57.0516C163.088 57.3097 163.434 57.582 163.72 57.8686C164.007 58.155 164.279 58.5005 164.537 58.9049C164.778 59.2825 165.003 59.7051 165.211 60.1725C165.596 61.0372 165.898 61.9797 166.116 63C166.334 61.9794 166.636 61.0368 167.021 60.1724C167.229 59.7049 167.453 59.2823 167.694 58.9046C167.952 58.5001 168.224 58.1545 168.511 57.8678C168.797 57.5814 169.143 57.3092 169.547 57.0511C169.924 56.8102 170.347 56.5857 170.815 56.3775C171.679 55.9927 172.621 55.6909 173.641 55.4719C172.621 55.2538 171.679 54.9524 170.814 54.5677C170.347 54.3596 169.924 54.1351 169.547 53.8942C169.142 53.6362 168.797 53.3639 168.51 53.0775C168.224 52.7913 167.952 52.4459 167.693 52.0414C167.452 51.6637 167.228 51.2412 167.02 50.7736C166.634 49.9085 166.333 48.966 166.115 47.9461Z" fill="#4B4B4B"/>
</g>
<defs>
<clipPath id="clip0">
<rect width="236" height="169" fill="white"/>
</clipPath>
</defs>
</svg>
