<svg xmlns="http://www.w3.org/2000/svg" xmlns:xlink="http://www.w3.org/1999/xlink" viewBox="0 0 64 64" version="1.1" fill="#3f51b5" id="svg_icon.primary" x="60" y="46" width="40" height="40"><g id="surface1"><path style=" " d="M 3 8 C 1.347656 8 0 9.347656 0 11 L 0 47 C 0 48.652344 1.347656 50 3 50 L 26 50 L 26 54 L 23.65625 54 C 22.320313 54 21.066406 54.519531 20.121094 55.464844 L 17.292969 58.292969 C 17.007813 58.578125 16.921875 59.007813 17.078125 59.382813 C 17.230469 59.757813 17.597656 60 18 60 L 46 60 C 46.402344 60 46.769531 59.757813 46.921875 59.382813 C 47.078125 59.007813 46.992188 58.578125 46.707031 58.292969 L 43.878906 55.464844 C 42.933594 54.519531 41.679688 54 40.34375 54 L 38 54 L 38 50 L 61 50 C 62.652344 50 64 48.652344 64 47 L 64 11 C 64 9.347656 62.652344 8 61 8 Z M 3 10 L 61 10 C 61.550781 10 62 10.449219 62 11 L 62 42 L 59 42 C 58.445313 42 58 42.445313 58 43 C 58 43.554688 58.445313 44 59 44 L 62 44 L 62 47 C 62 47.550781 61.550781 48 61 48 L 3 48 C 2.449219 48 2 47.550781 2 47 L 2 44 L 39.082031 44 C 39.636719 44 40.082031 43.554688 40.082031 43 C 40.082031 42.445313 39.636719 42 39.082031 42 L 2 42 L 2 11 C 2 10.449219 2.449219 10 3 10 Z M 5 12 C 4.445313 12 4 12.445313 4 13 C 4 13.554688 4.445313 14 5 14 L 51 14 C 51.554688 14 52 13.554688 52 13 C 52 12.445313 51.554688 12 51 12 Z M 55 12 C 54.445313 12 54 12.445313 54 13 C 54 13.554688 54.445313 14 55 14 L 59 14 C 59.554688 14 60 13.554688 60 13 C 60 12.445313 59.554688 12 59 12 Z M 8 18 C 6.898438 18 6 18.898438 6 20 L 6 22 C 6 23.101563 6.898438 24 8 24 L 14 24 C 15.101563 24 16 23.101563 16 22 L 16 20 C 16 18.898438 15.101563 18 14 18 Z M 36 18 C 32.691406 18 30 20.691406 30 24 L 30 26 C 30 27.164063 30.34375 28.394531 30.9375 29.496094 C 27.632813 30.402344 24.792969 32.53125 23.125 35.511719 C 22.855469 35.992188 23.03125 36.601563 23.515625 36.871094 C 23.996094 37.140625 24.601563 36.96875 24.875 36.484375 C 26.398438 33.753906 29.101563 31.882813 32.214844 31.253906 C 33.238281 32.304688 34.546875 33 36 33 C 37.453125 33 38.761719 32.304688 39.785156 31.253906 C 42.898438 31.882813 45.601563 33.757813 47.125 36.484375 C 47.3125 36.8125 47.652344 37 48 37 C 48.167969 37 48.332031 36.960938 48.484375 36.875 C 48.96875 36.601563 49.140625 35.996094 48.875 35.515625 C 47.207031 32.53125 44.367188 30.402344 41.0625 29.496094 C 41.65625 28.394531 42 27.164063 42 26 L 42 24 C 42 20.691406 39.308594 18 36 18 Z M 8 20 L 14 20 L 14 22 L 8 22 Z M 36 20 C 38.207031 20 40 21.792969 40 24 L 40 26 C 40 28.25 38.152344 31 36 31 C 33.847656 31 32 28.25 32 26 L 32 24 C 32 21.792969 33.792969 20 36 20 Z M 8 26 C 6.898438 26 6 26.898438 6 28 L 6 30 C 6 31.101563 6.898438 32 8 32 L 14 32 C 15.101563 32 16 31.101563 16 30 L 16 28 C 16 26.898438 15.101563 26 14 26 Z M 8 28 L 14 28 L 14 30 L 8 30 Z M 8 34 C 6.898438 34 6 34.898438 6 36 L 6 38 C 6 39.101563 6.898438 40 8 40 L 14 40 C 15.101563 40 16 39.101563 16 38 L 16 36 C 16 34.898438 15.101563 34 14 34 Z M 8 36 L 14 36 L 14 38 L 8 38 Z M 44 41 C 43.445313 41 43 41.445313 43 42 L 43 44 C 43 44.554688 43.445313 45 44 45 C 44.554688 45 45 44.554688 45 44 L 45 42 C 45 41.445313 44.554688 41 44 41 Z M 49 41 C 48.445313 41 48 41.445313 48 42 L 48 44 C 48 44.554688 48.445313 45 49 45 C 49.554688 45 50 44.554688 50 44 L 50 42 C 50 41.445313 49.554688 41 49 41 Z M 54 41 C 53.445313 41 53 41.445313 53 42 L 53 44 C 53 44.554688 53.445313 45 54 45 C 54.554688 45 55 44.554688 55 44 L 55 42 C 55 41.445313 54.554688 41 54 41 Z M 28 50 L 36 50 L 36 54 L 28 54 Z M 23.65625 56 L 40.34375 56 C 41.144531 56 41.898438 56.3125 42.464844 56.878906 L 43.585938 58 L 20.414063 58 L 21.535156 56.878906 C 22.101563 56.3125 22.855469 56 23.65625 56 Z "></path></g></svg>