<svg width="453" height="164" viewBox="0 0 453 164" fill="none" xmlns="http://www.w3.org/2000/svg">
<path d="M158.624 124.199L144.449 106.402V31.5567C144.449 29.7465 143.808 28.2011 142.525 26.9207C141.243 25.6402 139.695 25 137.882 25H21.3129C19.5 25 17.9525 25.6402 16.6705 26.9207C15.3886 28.201 14.7476 29.7464 14.7476 31.5567V106.402L0.571175 124.199C0.190392 124.677 0 125.222 0 125.833V133.711C0 135.156 0.511412 136.389 1.53424 137.41C2.55692 138.431 3.79178 138.941 5.23883 138.941H153.956C155.403 138.941 156.638 138.431 157.661 137.41C158.684 136.389 159.195 135.156 159.195 133.711V125.833C159.195 125.22 159.005 124.675 158.624 124.199ZM24.0117 34.2515H135.184V97.1508H24.0117V34.2515ZM94.5598 132.72H64.6355V124.81H94.5598V132.72Z" fill="#4B4B4B"/>
<path d="M90.7908 65.7913V68.7951C90.79 70.2967 90.5124 71.7289 89.958 73.0914C89.4224 74.4078 88.6611 75.5819 87.6742 76.6138C86.6861 77.6434 85.5467 78.4541 84.256 79.0456C82.9213 79.6573 81.5066 79.9959 80.0119 80.0615C80.0024 80.0621 79.9897 80.0638 79.9737 80.0666C79.9562 80.0696 79.9437 80.0715 79.9361 80.0722H79.6619C79.6545 80.0715 79.6419 80.0696 79.6243 80.0666C79.6084 80.0638 79.5957 80.0621 79.5862 80.0615C78.0915 79.9959 76.6768 79.6573 75.3421 79.0456C74.0514 78.4541 72.912 77.6434 71.9239 76.6138C70.9369 75.5819 70.1757 74.4078 69.6401 73.0914C69.0857 71.7289 68.8081 70.2968 68.8072 68.7951V65.7913H65.4336V68.7951C65.4328 70.7319 65.7933 72.5874 66.5151 74.3616C67.2149 76.0815 68.2057 77.61 69.4876 78.9471C70.6047 80.1147 71.8826 81.0699 73.3214 81.8127C74.7944 82.5732 76.356 83.069 78.0063 83.3001V89.7574H81.5908V83.3002C83.2415 83.0691 84.8034 82.5733 86.2766 81.8128C87.7154 81.07 88.9934 80.1148 90.1104 78.9472C91.3923 77.6101 92.3831 76.0815 93.0828 74.3617C93.8046 72.5875 94.1652 70.7319 94.1643 68.7951V65.7913H90.7908Z" fill="#4B4B4B"/>
<path d="M77.0196 68.7844H71.3555C71.3668 69.9351 71.5947 71.0361 72.039 72.0872C72.4684 73.1031 73.0711 74.0065 73.8471 74.7975C74.6222 75.5875 75.5132 76.2073 76.5202 76.6569C77.56 77.1211 78.6528 77.3711 79.7986 77.4069C80.9445 77.3711 82.0375 77.1211 83.0774 76.6569C84.0845 76.2073 84.9756 75.5875 85.7508 74.7975C86.5268 74.0066 87.1296 73.1031 87.559 72.0872C88.0033 71.0361 88.2312 69.9351 88.2425 68.7844H82.5783V67.1652H88.2465V64.1243H82.5783V62.5051H88.2465V59.4641H82.5783V57.8449H88.2465V54.804H82.5783V53.1847H88.2185C88.0772 51.5186 87.3909 50.1164 86.1597 48.9781C85.5716 48.4345 84.9076 48.0149 84.1675 47.7194C83.4012 47.4134 82.6016 47.2604 81.7688 47.2604H77.8293C76.9965 47.2604 76.1969 47.4134 75.4306 47.7194C74.6905 48.0149 74.0265 48.4345 73.4384 48.9781C72.2072 50.1164 71.5209 51.5186 71.3794 53.1847H77.0196V54.8039H71.3514V57.8448H77.0196V59.464H71.3514V62.5048H77.0196V64.124H71.3514V67.1649H77.0196V68.7844H77.0196Z" fill="#4B4B4B"/>
<path d="M232.5 68C241.752 68 249.649 64.6807 256.189 58.042C262.73 51.4036 266 43.3897 266 34.0003C266 24.6106 262.73 16.5966 256.189 9.95808C249.649 3.31936 241.752 0 232.5 0C223.248 0 215.352 3.31936 208.811 9.95808C202.27 16.5965 199 24.6106 199 34.0003C199 43.3895 202.27 51.4033 208.811 58.0418C215.352 64.6806 223.248 68 232.5 68Z" fill="#4B4B4B"/>
<path d="M283.807 131.041C283.855 124.685 282.769 118.562 280.55 112.67C278.407 106.98 275.331 101.825 271.324 97.2043C262.991 87.597 252.546 81.8622 239.988 80V92.8169H224.819V80.0052C212.414 81.8413 202.057 87.4746 193.747 96.905C189.744 101.448 186.65 106.523 184.465 112.132C182.202 117.939 181.047 123.987 181 130.278V164H283.807V131.041H283.807ZM239.988 128.765H224.819V103.388H239.988V128.765H239.988Z" fill="#4B4B4B"/>
<path d="M409.533 1H346.492C340.607 1 334.973 2.14253 329.59 4.42759C324.392 6.63429 319.786 9.7483 315.772 13.7696C311.759 17.791 308.651 22.4062 306.448 27.615C304.168 33.009 303.027 38.6549 303.027 44.5526V61.5485L293.233 67.3436L272 79.8997L292.852 93.0854L308.83 103.196C312.694 109.918 317.974 115.226 324.668 119.12C331.407 123.04 338.682 125 346.493 125H409.533C415.418 125 421.052 123.857 426.436 121.572C431.634 119.366 436.24 116.252 440.254 112.231C444.268 108.21 447.376 103.595 449.579 98.3869C451.86 92.9935 453 87.3485 453 81.452V44.5526C453 38.655 451.859 33.0091 449.578 27.615C447.376 22.4062 444.267 17.7911 440.254 13.7696C436.24 9.7483 431.634 6.63429 426.435 4.42759C421.052 2.14253 415.418 1 409.533 1ZM437.941 81.4519C437.941 89.3113 435.167 96.02 429.619 101.578C424.072 107.136 417.377 109.915 409.533 109.915H346.492C340.717 109.915 335.443 108.306 330.67 105.089C326.015 101.952 322.585 97.8084 320.379 92.6579L300.891 80.3323L318.087 70.162V44.5526C318.087 36.691 320.861 29.981 326.408 24.4225C331.954 18.8644 338.649 16.0853 346.493 16.0853H409.533C417.377 16.0853 424.072 18.8644 429.619 24.4225C435.167 29.9811 437.941 36.6911 437.941 44.5526V81.4519H437.941Z" fill="#4B4B4B"/>
</svg>
