<svg width="410" height="241" viewBox="0 0 410 241" fill="none" xmlns="http://www.w3.org/2000/svg">
<g clip-path="url(#clip0)">
<path d="M206.166 0C209.484 0 212.308 1.23724 214.636 3.71173C216.975 6.19692 218.095 9.17157 217.995 12.6357V103.654L247.643 126.403L217.995 145.675V229.339C218.095 232.803 216.975 235.778 214.636 238.263C212.308 240.737 209.484 241.975 206.166 241.975H12.0293C8.72124 241.975 5.88934 240.737 3.5336 238.263C1.17787 235.788 0 232.814 0 229.339V12.6357C0 9.16088 1.17787 6.18622 3.5336 3.71173C5.88934 1.23724 8.72124 0 12.0293 0H206.166Z" stroke="#4B4B4B" stroke-width="3"/>
<path d="M409.462 179.469L396.105 162.7V92.178C396.105 90.4723 395.501 89.0162 394.293 87.8097C393.085 86.6032 391.626 86 389.918 86H280.082C278.374 86 276.916 86.6032 275.708 87.8097C274.5 89.0162 273.896 90.4722 273.896 92.178V162.7L260.538 179.469C260.179 179.92 260 180.433 260 181.009V188.431C260 189.793 260.482 190.955 261.446 191.917C262.409 192.879 263.573 193.36 264.936 193.36H405.064C406.427 193.36 407.591 192.879 408.554 191.917C409.518 190.955 410 189.793 410 188.431V181.009C410 180.431 409.821 179.918 409.462 179.469ZM282.625 94.7171H387.375V153.983H282.625V94.7171ZM349.098 187.498H320.902V180.045H349.098V187.498Z" fill="#4B4B4B"/>
<path d="M102.992 86H18V149.693H102.992V86Z" fill="white" stroke="#4B4B4B" stroke-width="2"/>
<path d="M47.9258 110.09H54.562V135.134H47.9258V110.09Z" fill="#4B4B4B"/>
<path d="M67.7861 114.048C67.4232 114.53 67.2417 115.073 67.2417 115.675C67.2417 116.427 67.5093 117.069 68.0446 117.6C68.5799 118.131 69.2258 118.397 69.9824 118.397C70.737 118.397 71.3829 118.134 71.9201 117.607C72.4054 117.125 72.6707 116.544 72.716 115.864C72.7609 115.19 72.5796 114.585 72.1722 114.048H67.7861Z" fill="#4B4B4B"/>
<path d="M66.5048 124.322V135.137H73.141V124.44C72.1264 124.801 71.0735 124.981 69.9823 124.981C68.78 124.981 67.6208 124.761 66.5048 124.322Z" fill="#4B4B4B"/>
<path d="M60.6191 115.675C60.6191 113.105 61.5324 110.913 63.3591 109.098C63.5488 108.91 63.7126 108.76 63.8503 108.65V100.867H57.2141V135.137H63.8503V122.707C63.7105 122.595 63.5467 122.446 63.3591 122.259C61.5324 120.445 60.6191 118.251 60.6191 115.675Z" fill="#4B4B4B"/>
<path d="M38.6376 121.95H45.2739V135.13H38.6376V121.95Z" fill="#4B4B4B"/>
<path d="M79.7599 123.112L76.1792 119.648C76.9638 118.444 77.3561 117.121 77.3561 115.678C77.3561 113.653 76.6367 111.926 75.198 110.498C73.7592 109.069 72.0204 108.354 69.9816 108.354C67.9421 108.354 66.2033 109.069 64.7652 110.498C63.3265 111.926 62.6072 113.652 62.6072 115.678C62.6072 117.703 63.3263 119.43 64.7647 120.859C66.2034 122.288 67.9424 123.002 69.9816 123.002C71.4347 123.002 72.7677 122.612 73.9806 121.832L77.4669 125.387C77.793 125.777 78.1733 125.981 78.6079 125.999C79.0448 126.017 79.448 125.842 79.8175 125.475C80.1894 125.107 80.3705 124.701 80.3607 124.259C80.3509 123.815 80.1507 123.433 79.7599 123.112ZM69.9817 119.608C68.8893 119.608 67.9563 119.224 67.1827 118.457C66.4102 117.69 66.0239 116.763 66.0239 115.678C66.0239 114.593 66.4102 113.667 67.1827 112.899C67.9563 112.132 68.8894 111.748 69.9817 111.748C71.0739 111.748 72.0065 112.132 72.7795 112.899C73.551 113.666 73.9368 114.592 73.9368 115.679C73.9368 116.765 73.551 117.691 72.7795 118.458C72.0069 119.225 71.0744 119.608 69.9817 119.608Z" fill="#4B4B4B"/>
<path d="M137.992 7H54V70.6925H137.992V7Z" fill="white" stroke="#4B4B4B" stroke-width="2"/>
<path d="M83.8936 25.3171H108.06V34.0143H83.8936V25.3171Z" fill="#4B4B4B"/>
<path d="M75.2626 16.6198V58.3667H116.691V16.6198H75.2626ZM112.376 54.0181H79.578V20.9684H112.376V54.0181V54.0181Z" fill="#4B4B4B"/>
<path d="M83.8936 39.2327H108.06V41.8419H83.8936V39.2327Z" fill="#4B4B4B"/>
<path d="M83.8936 46.1906H108.06V48.7998H83.8936V46.1906Z" fill="#4B4B4B"/>
<path d="M199.681 86H115V150.385H199.681V86Z" fill="white" stroke="#4B4B4B" stroke-width="2"/>
<path d="M145.174 132.066H151.751C151.982 132.066 152.179 131.99 152.343 131.839C152.506 131.687 152.587 131.504 152.587 131.289V121.495C152.587 121.281 152.506 121.097 152.343 120.946C152.179 120.794 151.982 120.718 151.751 120.718H145.174C144.943 120.718 144.746 120.794 144.582 120.946C144.419 121.098 144.338 121.281 144.338 121.495V131.289C144.338 131.504 144.419 131.687 144.582 131.839C144.746 131.99 144.943 132.066 145.174 132.066Z" fill="#4B4B4B"/>
<path d="M157.167 117.69C156.936 117.69 156.739 117.766 156.576 117.917C156.412 118.069 156.331 118.252 156.331 118.467V131.289C156.331 131.504 156.412 131.687 156.576 131.839C156.739 131.99 156.936 132.066 157.167 132.066H163.744C163.975 132.066 164.172 131.99 164.336 131.839C164.499 131.687 164.581 131.504 164.581 131.289V118.467C164.581 118.252 164.499 118.069 164.336 117.917C164.172 117.766 163.975 117.69 163.744 117.69H157.167Z" fill="#4B4B4B"/>
<path d="M168.324 112.973V131.289C168.324 131.504 168.405 131.687 168.569 131.839C168.732 131.99 168.929 132.066 169.16 132.066H175.738C175.968 132.066 176.165 131.99 176.329 131.839C176.492 131.687 176.574 131.504 176.574 131.289V112.973C176.574 112.759 176.492 112.575 176.329 112.424C176.165 112.272 175.968 112.196 175.738 112.196H169.16C168.929 112.196 168.732 112.272 168.569 112.424C168.405 112.575 168.324 112.759 168.324 112.973Z" fill="#4B4B4B"/>
<path d="M176.853 135.607H141.079V99.732V98.3765H136.437V99.732V135.607V138.906V140.262H137.789H141.079H176.853H178.205V135.607H176.853Z" fill="#4B4B4B"/>
<path d="M154.729 108.114L161.507 114.876L171.25 105.155L173.474 107.374L174.977 98.3765L165.959 99.8762L168.183 102.095L161.507 108.756L154.729 101.993L144.338 112.36L147.405 115.42L154.729 108.114Z" fill="#4B4B4B"/>
<path d="M144.992 162H61V225.379H144.992V162Z" fill="white" stroke="#4B4B4B" stroke-width="2"/>
<path d="M121.901 182.402C120.786 179.33 118.897 176.841 116.235 174.933C114.926 173.995 113.512 173.277 111.992 172.78C110.42 172.265 108.801 172.008 107.135 172.008L107.136 187.806L121.901 182.402Z" fill="#4B4B4B"/>
<path d="M117.924 186.769L115.642 187.606L104.139 191.815V179.508V177.063H101.708H101.706C99.2868 177.063 96.9735 177.523 94.7665 178.444C92.5596 179.364 90.5984 180.686 88.8829 182.411C87.1681 184.135 85.8529 186.108 84.9375 188.327C84.022 190.547 83.5643 192.873 83.5643 195.306C83.5643 197.458 83.9292 199.539 84.6589 201.547C85.3033 203.321 86.2022 204.956 87.3553 206.451C88.4829 207.912 89.8026 209.175 91.3146 210.24C92.8266 211.304 94.4578 212.119 96.2082 212.683C97.9985 213.26 99.8317 213.549 101.708 213.549C104.128 213.549 106.441 213.088 108.649 212.167C110.855 211.247 112.816 209.924 114.531 208.199C116.247 206.475 117.562 204.503 118.478 202.284C119.393 200.065 119.851 197.739 119.851 195.306C119.851 193.153 119.486 191.072 118.757 189.064L117.924 186.769ZM101.708 211.105C100.041 211.105 98.4225 210.847 96.8508 210.332C95.3309 209.834 93.9168 209.117 92.6086 208.179C89.9467 206.271 88.0579 203.781 86.9423 200.709C86.3102 198.97 85.9941 197.169 85.9941 195.306C85.9941 194.231 86.1007 193.171 86.3139 192.126C86.5217 191.108 86.8274 190.12 87.231 189.162C88.0273 187.273 89.1509 185.599 90.602 184.14C92.053 182.681 93.7181 181.551 95.5974 180.751C96.5499 180.345 97.5325 180.038 98.5451 179.829C99.5842 179.615 100.638 179.507 101.708 179.507V195.306L116.474 189.902C117.105 191.641 117.42 193.443 117.42 195.306C117.42 196.381 117.314 197.441 117.101 198.486C116.893 199.504 116.587 200.492 116.184 201.449C115.388 203.339 114.264 205.013 112.813 206.472C111.362 207.931 109.697 209.06 107.818 209.861C106.866 210.267 105.883 210.574 104.87 210.783C103.831 210.997 102.777 211.105 101.708 211.105Z" fill="#4B4B4B"/>
</g>
<defs>
<clipPath id="clip0">
<rect width="410" height="241" fill="white"/>
</clipPath>
</defs>
</svg>
