<svg width="410" height="241" viewBox="0 0 410 241" fill="none" xmlns="http://www.w3.org/2000/svg">
<g clip-path="url(#clip0)">
<path d="M207.338 3C210.563 3 213.307 4.19647 215.569 6.58941C217.842 8.99269 218.93 11.8693 218.833 15.2193V103.238L247.643 125.237L218.833 143.874V224.781C218.93 228.131 217.842 231.007 215.569 233.411C213.307 235.804 210.563 237 207.338 237H18.6893C15.4747 237 12.7229 235.804 10.4337 233.411C8.14457 231.018 7 228.141 7 224.781V15.2193C7 11.859 8.14457 8.98234 10.4337 6.58941C12.7229 4.19647 15.4747 3 18.6893 3H207.338Z" stroke="#4B4B4B" stroke-width="3"/>
<path d="M409.462 179.469L396.105 162.7V92.178C396.105 90.4723 395.501 89.0162 394.293 87.8097C393.085 86.6032 391.626 86 389.918 86H280.082C278.374 86 276.916 86.6032 275.708 87.8097C274.5 89.0162 273.896 90.4722 273.896 92.178V162.7L260.538 179.469C260.179 179.92 260 180.433 260 181.009V188.431C260 189.793 260.482 190.955 261.446 191.917C262.409 192.879 263.573 193.36 264.936 193.36H405.064C406.427 193.36 407.591 192.879 408.554 191.917C409.518 190.955 410 189.793 410 188.431V181.009C410 180.431 409.821 179.918 409.462 179.469ZM282.625 94.7171H387.375V153.983H282.625V94.7171ZM349.098 187.498H320.902V180.045H349.098V187.498Z" fill="#4B4B4B"/>
<path d="M102.992 86H18V149.693H102.992V86Z" fill="white" stroke="#4B4B4B" stroke-width="2"/>
<path d="M47.9258 110.09H54.562V135.134H47.9258V110.09Z" fill="#4B4B4B"/>
<path d="M67.7861 114.048C67.4232 114.53 67.2417 115.073 67.2417 115.675C67.2417 116.427 67.5093 117.069 68.0446 117.6C68.5799 118.131 69.2258 118.397 69.9824 118.397C70.737 118.397 71.3829 118.134 71.9201 117.607C72.4054 117.125 72.6707 116.544 72.716 115.864C72.7609 115.19 72.5796 114.585 72.1722 114.048H67.7861Z" fill="#4B4B4B"/>
<path d="M66.5048 124.322V135.137H73.141V124.44C72.1264 124.801 71.0735 124.981 69.9823 124.981C68.78 124.981 67.6208 124.761 66.5048 124.322Z" fill="#4B4B4B"/>
<path d="M60.6191 115.675C60.6191 113.105 61.5324 110.913 63.3591 109.098C63.5488 108.91 63.7126 108.76 63.8503 108.65V100.867H57.2141V135.137H63.8503V122.707C63.7105 122.595 63.5467 122.446 63.3591 122.259C61.5324 120.445 60.6191 118.251 60.6191 115.675Z" fill="#4B4B4B"/>
<path d="M38.6376 121.95H45.2739V135.13H38.6376V121.95Z" fill="#4B4B4B"/>
<path d="M79.7599 123.112L76.1792 119.648C76.9638 118.444 77.3561 117.121 77.3561 115.678C77.3561 113.653 76.6367 111.926 75.198 110.498C73.7592 109.069 72.0204 108.354 69.9816 108.354C67.9421 108.354 66.2033 109.069 64.7652 110.498C63.3265 111.926 62.6072 113.652 62.6072 115.678C62.6072 117.703 63.3263 119.43 64.7647 120.859C66.2034 122.288 67.9424 123.002 69.9816 123.002C71.4347 123.002 72.7677 122.612 73.9806 121.832L77.4669 125.387C77.793 125.777 78.1733 125.981 78.6079 125.999C79.0448 126.017 79.448 125.842 79.8175 125.475C80.1894 125.107 80.3705 124.701 80.3607 124.259C80.3509 123.815 80.1507 123.433 79.7599 123.112ZM69.9817 119.608C68.8893 119.608 67.9563 119.224 67.1827 118.457C66.4102 117.69 66.0239 116.763 66.0239 115.678C66.0239 114.593 66.4102 113.667 67.1827 112.899C67.9563 112.132 68.8894 111.748 69.9817 111.748C71.0739 111.748 72.0065 112.132 72.7795 112.899C73.551 113.666 73.9368 114.592 73.9368 115.679C73.9368 116.765 73.551 117.691 72.7795 118.458C72.0069 119.225 71.0744 119.608 69.9817 119.608Z" fill="#4B4B4B"/>
<path d="M137.992 7H54V70.6925H137.992V7Z" fill="white" stroke="#4B4B4B" stroke-width="2"/>
<path d="M83.8936 25.3171H108.06V34.0143H83.8936V25.3171Z" fill="#4B4B4B"/>
<path d="M75.2626 16.6198V58.3667H116.691V16.6198H75.2626ZM112.376 54.0181H79.578V20.9684H112.376V54.0181V54.0181Z" fill="#4B4B4B"/>
<path d="M83.8936 39.2327H108.06V41.8419H83.8936V39.2327Z" fill="#4B4B4B"/>
<path d="M83.8936 46.1906H108.06V48.7998H83.8936V46.1906Z" fill="#4B4B4B"/>
<path d="M199.681 86H115V150.385H199.681V86Z" fill="white" stroke="#4B4B4B" stroke-width="2"/>
<path d="M145.174 132.066H151.751C151.982 132.066 152.179 131.99 152.343 131.839C152.506 131.687 152.587 131.504 152.587 131.289V121.495C152.587 121.281 152.506 121.097 152.343 120.946C152.179 120.794 151.982 120.718 151.751 120.718H145.174C144.943 120.718 144.746 120.794 144.582 120.946C144.419 121.098 144.338 121.281 144.338 121.495V131.289C144.338 131.504 144.419 131.687 144.582 131.839C144.746 131.99 144.943 132.066 145.174 132.066Z" fill="#4B4B4B"/>
<path d="M157.167 117.69C156.936 117.69 156.739 117.766 156.576 117.917C156.412 118.069 156.331 118.252 156.331 118.467V131.289C156.331 131.504 156.412 131.687 156.576 131.839C156.739 131.99 156.936 132.066 157.167 132.066H163.744C163.975 132.066 164.172 131.99 164.336 131.839C164.499 131.687 164.581 131.504 164.581 131.289V118.467C164.581 118.252 164.499 118.069 164.336 117.917C164.172 117.766 163.975 117.69 163.744 117.69H157.167Z" fill="#4B4B4B"/>
<path d="M168.324 112.973V131.289C168.324 131.504 168.405 131.687 168.569 131.839C168.732 131.99 168.929 132.066 169.16 132.066H175.738C175.968 132.066 176.165 131.99 176.329 131.839C176.492 131.687 176.574 131.504 176.574 131.289V112.973C176.574 112.759 176.492 112.575 176.329 112.424C176.165 112.272 175.968 112.196 175.738 112.196H169.16C168.929 112.196 168.732 112.272 168.569 112.424C168.405 112.575 168.324 112.759 168.324 112.973Z" fill="#4B4B4B"/>
<path d="M176.853 135.607H141.079V99.732V98.3765H136.437V99.732V135.607V138.906V140.262H137.789H141.079H176.853H178.205V135.607H176.853Z" fill="#4B4B4B"/>
<path d="M154.729 108.114L161.507 114.876L171.25 105.155L173.474 107.374L174.977 98.3765L165.959 99.8762L168.183 102.095L161.507 108.756L154.729 101.993L144.338 112.36L147.405 115.42L154.729 108.114Z" fill="#4B4B4B"/>
<path d="M144.992 161H61V224.379H144.992V161Z" fill="white" stroke="#4B4B4B" stroke-width="2"/>
<path d="M121.901 181.402C120.786 178.33 118.897 175.841 116.235 173.933C114.926 172.995 113.512 172.277 111.992 171.78C110.42 171.265 108.801 171.008 107.135 171.008L107.136 186.806L121.901 181.402Z" fill="#4B4B4B"/>
<path d="M117.924 185.769L115.642 186.606L104.139 190.815V178.508V176.063H101.708H101.706C99.2868 176.063 96.9735 176.523 94.7665 177.444C92.5596 178.364 90.5984 179.686 88.8829 181.411C87.1681 183.135 85.8529 185.108 84.9375 187.327C84.022 189.547 83.5643 191.873 83.5643 194.306C83.5643 196.458 83.9292 198.539 84.6589 200.547C85.3033 202.321 86.2022 203.956 87.3553 205.451C88.4829 206.912 89.8026 208.175 91.3146 209.24C92.8266 210.304 94.4578 211.119 96.2082 211.683C97.9985 212.26 99.8317 212.549 101.708 212.549C104.128 212.549 106.441 212.088 108.649 211.167C110.855 210.247 112.816 208.924 114.531 207.199C116.247 205.475 117.562 203.503 118.478 201.284C119.393 199.065 119.851 196.739 119.851 194.306C119.851 192.153 119.486 190.072 118.757 188.064L117.924 185.769ZM101.708 210.105C100.041 210.105 98.4225 209.847 96.8508 209.332C95.3309 208.834 93.9168 208.117 92.6086 207.179C89.9467 205.271 88.0579 202.781 86.9423 199.709C86.3102 197.97 85.9941 196.169 85.9941 194.306C85.9941 193.231 86.1007 192.171 86.3139 191.126C86.5217 190.108 86.8274 189.12 87.231 188.162C88.0273 186.273 89.1509 184.599 90.602 183.14C92.053 181.681 93.7181 180.551 95.5974 179.751C96.5499 179.345 97.5325 179.038 98.5451 178.829C99.5842 178.615 100.638 178.507 101.708 178.507V194.306L116.474 188.902C117.105 190.641 117.42 192.443 117.42 194.306C117.42 195.381 117.314 196.441 117.101 197.486C116.893 198.504 116.587 199.492 116.184 200.449C115.388 202.339 114.264 204.013 112.813 205.472C111.362 206.931 109.697 208.06 107.818 208.861C106.866 209.267 105.883 209.574 104.87 209.783C103.831 209.997 102.777 210.105 101.708 210.105Z" fill="#4B4B4B"/>
</g>
<defs>
<clipPath id="clip0">
<rect width="410" height="241" fill="white"/>
</clipPath>
</defs>
</svg>
